<?xml version="1.0" encoding="utf-8"?>
<!-- Generator: Adobe Illustrator 25.3.1, SVG Export Plug-In . SVG Version: 6.00 Build 0)  -->
<svg version="1.1" id="Layer_1" xmlns="http://www.w3.org/2000/svg" xmlns:xlink="http://www.w3.org/1999/xlink" x="0px" y="0px"
	 viewBox="0 0 2000 900" style="enable-background:new 0 0 2000 900;" xml:space="preserve">
<style type="text/css">
	.st0{fill:#263138;}
	.st1{fill:url(#SVGID_1_);}
	.st2{fill:#5FAEDF;}
	.st3{fill:url(#SVGID_2_);}
	.st4{fill:url(#SVGID_3_);}
	.st5{fill:url(#SVGID_4_);}
	.st6{fill:url(#SVGID_5_);}
</style>
<g>
	<g>
		<g>
			<path class="st0" d="M776.1,674.2c0,0,4.9,0.4,10.9,0v0.2l6.3-0.2l13.5,29.6l13.2-29.6l6.7,0.1v-0.1c5.9,0.1,10.9,0,10.9,0v56.5
				h-10.9v-44.3l-14.9,28.4h-10l-14.9-28.1v44h-10.9V674.2z"/>
			<path class="st0" d="M908.3,688.5c4,0,8,1.6,11.3,4.4v-3.6h10.1v41.3h-10.1v-3.2c-3.3,2.5-7.4,4-11.3,4
				c-11.5,0-19.1-8.6-19.1-21.5C889.2,697.1,896.8,688.5,908.3,688.5z M910,722c4.8,0,9.6-4.1,9.6-12s-4.8-12-9.6-12
				c-7,0-10.9,4.4-10.9,12.4S903,722,910,722z"/>
			<path class="st0" d="M1008.2,697.6c-8.6,0.1-11.3,4.4-11.3,11.2v21.9h-10.1v-41.3h10.1v3.2c2.7-2.7,6.4-4,11.1-4
				c3.2,0,5.2,0.8,7.2,2.6v8.8C1015.2,699.9,1012.1,697.6,1008.2,697.6z"/>
			<path class="st0" d="M1063.6,670.3h10.1V706l17-16.6h13l-13.6,13.5l14.3,27.8h-12.1l-9.6-20.4l-9,9v11.4h-10.1V670.3z"/>
			<path class="st0" d="M1188.2,725.4c-2.3,3.5-7.5,6-15.8,6c-13.4,0-22.3-6.7-22.3-21.5c0-14.8,8.2-21.5,20.6-21.5
				c13.6,0,19.6,9.3,18.9,23.4h-10.1c0.1-1.3,0-2.5,0-3.7v3.7h-18.5c0.6,7.4,5.1,10.8,11.3,10.8c8.4,0,12.2-3.7,16-5.1L1188.2,725.4
				z M1170.7,696.5c-4.8,0-8.3,2.9-9.3,9.3h18C1178.4,699.9,1175.5,696.5,1170.7,696.5z"/>
			<path class="st0" d="M1265.3,698.4h-14.1v18.3c0,3.8,2,6.1,8.1,6.1c1.7,0,3.9-0.5,5.8-1.3v8.4c-3.5,1.4-6.7,1.7-8.4,1.7
				c-11.4,0-15.5-5.3-15.5-14.8v-18.3h-6.3v-8.8h6.3V676l10.1-5.9v19.4h14.1V698.4z"/>
			<path class="st0" d="M1316.6,669.5c0,0,10.3,0.1,10.9,0c0.2,0.5,0,10.9,0,10.9h-10.9V669.5z M1317.1,689.3h10.1v41.3h-10.1V689.3
				z M1327.6,669.5"/>
			<path class="st0" d="M1404.8,705.6c-0.2-2.7-2.8-6.1-7-6.1c-5.1,0-8.6,1.6-8.6,6.1v25.1h-10.1v-41.3h10.1v4.8
				c2.9-3.5,7.4-5.2,12.5-5.2c7.9,0,13.1,5.6,13.1,16.6v25.1h-10.1C1404.8,730.7,1405.3,713.1,1404.8,705.6z"/>
			<path class="st0" d="M1466.7,734.1c2.9,3.1,8.5,6.7,18.6,6.7c7,0,10.7-4.3,10.7-10.7v-2.7c-3.6,2.2-8.1,3.3-13.5,3.2
				c-10.6-0.2-17.7-5.8-17.7-20.7c0-15.4,7-21.4,17.7-21.5c5.5-0.1,10,1.3,13.5,3.9v-3.1h10.1v39.2c0,12.9-6.9,21.5-20.6,21.5
				c-9.6,0-12.4-0.6-19.5-4.8L1466.7,734.1z M1485.3,721.7c6.1,0,10.8-4.3,10.8-11.7c0-7.9-4.7-12.2-10.8-12.2
				c-6,0-10.2,2.4-10.2,11.9C1475.1,718.6,1479.3,721.7,1485.3,721.7z"/>
			<path class="st0" d="M1623.2,674.2h11.2V698h29.7v-23.8h11.2v56.5h-11.2v-23.5h-29.7v23.5h-11.2V674.2z"/>
			<path class="st0" d="M1754.4,730.7v-4.5c-3.2,3.4-7.4,5.3-11.9,5.3c-10.9,0-13.9-5.8-13.9-17v-25.1h10.1v25.1
				c0,5.2,1.6,7.9,7,7.9c5.2,0,8.7-3.8,8.7-9.5v-23.5h10.1v41.3H1754.4z"/>
			<path class="st0" d="M1816.8,670.3h10.1v22.3c3.9-2.7,8.6-4,13.2-4c10.3,0,17.2,8.6,17.2,21.5c0,12.9-6.9,21.5-17.2,21.5
				c-4.6,0-9.3-1.3-13.2-4.1v3.3h-10.1V670.3z M1837.2,722.8c5.8,0,10.1-4.4,10.1-12.4s-3.9-12.8-9.7-12.8
				c-5.9,0-10.8,3.3-10.8,12.4C1826.9,719.1,1831.3,722.8,1837.2,722.8z"/>
		</g>
		<g>
			<linearGradient id="SVGID_1_" gradientUnits="userSpaceOnUse" x1="1391.9049" y1="283.6675" x2="1391.9049" y2="379.8157">
				<stop  offset="0" style="stop-color:#445EA7"/>
				<stop  offset="0.2482" style="stop-color:#4F7CBC"/>
				<stop  offset="0.9996" style="stop-color:#89DDEF"/>
			</linearGradient>
			<circle class="st1" cx="1391.9" cy="329.2" r="29.3"/>
			<path class="st0" d="M1094.4,399.4v19.7c-18-15.4-39.8-24-61.2-24c-62.1,0-103.2,46.2-103.2,116c-0.2,18.2,3,36.3,9.6,53.3
				c5.4,14,13.9,26.7,24.8,37c17.7,16.4,41.1,25.6,68.8,25.6c22.2-0.3,43.7-7.8,61.2-21.4v17.2h54.8V399.4H1094.4z M1042.7,576.3
				c-37.7,0-58.7-20.2-58.7-62.9s21-66.8,58.7-66.8c25.7,0,51.8,21.8,51.8,64.6s-26.1,65-51.8,65L1042.7,576.3z"/>
			<path class="st0" d="M1300.9,443.9c-46.6,0.4-61.2,24-61.2,60.3v118.8h-54.4V399.4h54.4v17.5c14.6-14.6,34.7-21.8,59.9-21.8
				c17.5,0,28.3,4.3,38.9,14.1v47.5C1338.6,456.7,1321.9,443.9,1300.9,443.9z"/>
			<path class="st0" d="M1364.7,399.4h54.5v223.6h-54.5V399.4z"/>
			<path class="st0" d="M1550.4,395.1c21.4,0,43.2,8.6,61.2,24v-19.7h54.8v223.6h-54.8v-17.1c-17.6,13.6-39,21.1-61.2,21.4
				c-62.1,0-103.2-46.2-103.2-116S1488.3,395.1,1550.4,395.1z M1559.8,576.2c25.7,0,51.8-22.3,51.8-65.1s-26.1-64.6-51.8-64.6
				c-37.7,0-58.7,24-58.7,66.8S1522.1,576.2,1559.8,576.2z"/>
			<path class="st0" d="M957.2,627.1l-95.5,0H860c-61.6,0-83.9-28.7-83.9-80.1V327.5l54.3-31.7V554c0,14.4,11.7,26.1,26.1,26h63.3
				c6.7,14.7,16.3,28.1,27.9,39.2l0.2,0.2C950.8,622.1,953.9,624.7,957.2,627.1z"/>
			<path class="st0" d="M1856.8,448.2v-47.6h-76.3V295.7l0,0l-54.4,31.7v73.3h-33.7v47.5h33.8v98.9c0,51.4,22.3,80.1,83.9,80.1h46.7
				V580h-32.5c-32.9,0-43.7-12.4-43.7-32.9v-99H1856.8z"/>
		</g>
	</g>
	<g>
		<path class="st2" d="M773,208.7c-0.1,0-0.1-0.1-0.2-0.1c-43.1-26.5-95.4-42.1-151.7-42.1c-4.9,0-9.8,0.1-14.6,0.3
			c-1.6,0.1-3.2,0.2-4.8,0.3c-0.4,0-0.9,0-1.3,0.1c-15.4,1.1-31.1,3.4-46.7,7c-0.2,0.1-0.4,0.1-0.7,0.2c-0.9,0.2-1.8,0.4-2.8,0.6
			c-0.4,0.1-0.8,0.2-1.2,0.3l0,0c-58.4-26.2-125.9-33.3-192.5-15.4c-154,41.2-245.2,199.6-203.7,353.6
			c41.5,153.7,201.4,245,354.9,202.8c65.8-18.1,120-57.7,157.1-109.1c28.6-39.6,47-86.2,52.8-135.4c4-33.8,1.9-68.9-6.9-103.8
			c-0.3-1.4-0.7-2.8-1.1-4.2c-9.7-36.3-26-69.1-47.1-97.6l-0.1-0.1c6.8,1.4,13.5,3.1,20.1,5.2c0.3,0.1,0.5,0.2,0.8,0.3
			c1.1,0.3,2.2,0.7,3.2,1.1c0.6,0.2,1.2,0.4,1.8,0.6c1.3,0.5,2.7,1,4,1.5c0.9,0.3,1.7,0.7,2.6,1c7.9,3.1,15.4,6.8,22.7,10.9
			c3.1,1.8,6.9,1.7,10-0.1L756,270l48.2-28.2c3.6-2.1,4.1-7.2,0.9-9.9C795.1,223.4,784.3,215.7,773,208.7z M509.8,613.7
			c-9.3,4.2-19,7.6-29,10.3c-25.1,6.7-50.7,8.3-76.1,4.8c-24.6-3.4-48.1-11.5-69.7-24c-21.6-12.5-40.4-28.8-55.6-48.4
			c-15.8-20.2-27.2-43.2-33.9-68.3c-6.7-25.1-8.4-50.7-4.8-76.1c3.4-24.6,11.5-48.1,24-69.7c12.5-21.7,28.8-40.4,48.4-55.6
			c20.2-15.8,43.2-27.2,68.3-33.9c10-2.7,20.1-4.5,30.2-5.6c-28.8,26.4-50.9,57.5-64.4,90.9c0,0,0,0.1,0,0.1
			c-14.9,36.9-19.5,76.5-11.2,115.5c0.1,0.6,0.3,1.2,0.4,1.9c0.1,0.6,0.3,1.3,0.4,1.9c0.2,1,0.5,2,0.7,3c0.1,0.3,0.2,0.6,0.2,1
			c0.2,0.6,0.3,1.2,0.5,1.8c0.2,0.6,0.3,1.3,0.5,1.9c0.1,0.3,0.2,0.6,0.3,0.9c0.3,1,0.6,2,0.9,3c0.2,0.6,0.4,1.3,0.6,1.9
			c0.2,0.6,0.4,1.2,0.6,1.8c12.3,37.9,36.1,70,67.4,94.4c0,0,0,0,0.1,0c33.3,24.9,74.3,38.9,117.1,38.5
			C520.5,608.6,515.2,611.3,509.8,613.7z M607.1,461.5c-12.8,22.2-33.6,38.1-58.4,44.8c-24.8,6.6-50.7,3.2-72.9-9.6
			c-3.2-1.8-6.2-3.8-9.1-5.9c-15.4-11.3-26.9-26.9-33.3-45c-0.1-0.4-0.3-0.7-0.4-1.1c-0.1-0.3-0.2-0.6-0.3-0.9
			c-0.2-0.5-0.3-1-0.5-1.5c-0.1-0.4-0.3-0.8-0.4-1.3c-0.1-0.3-0.2-0.6-0.3-1c-0.1-0.2-0.1-0.4-0.2-0.5c-0.1-0.4-0.2-0.8-0.3-1.2
			c-0.1-0.4-0.2-0.8-0.3-1.2c0-0.2-0.1-0.4-0.1-0.6c-0.1-0.3-0.2-0.6-0.2-1c-0.1-0.4-0.2-0.9-0.3-1.3c-0.1-0.4-0.2-0.9-0.3-1.3
			c-4.1-19.5-2-39.6,5.9-57.7c0,0,0,0,0-0.1c4-10.1,9.4-20,16.2-29.7c12-16.9,27.5-31.9,46.1-44.6c12.6-8.6,26.2-15.9,40.7-21.7
			c16.8,11.3,31.6,25.1,44,41.1c15.8,20.2,27.2,43.2,33.9,68.3C623.3,413.4,619.9,439.3,607.1,461.5z"/>
		<g>
			<linearGradient id="SVGID_2_" gradientUnits="userSpaceOnUse" x1="347.8161" y1="696.3229" x2="475.2377" y2="301.4133">
				<stop  offset="0" style="stop-color:#445EA7"/>
				<stop  offset="0.222" style="stop-color:#4F7CBC"/>
				<stop  offset="0.9967" style="stop-color:#5FAEDF"/>
			</linearGradient>
			<path class="st3" d="M505.7,716.8c-153.8,41.2-311.8-50.1-353-203.8s50.1-311.8,203.8-353c66.7-17.9,134.1-10.8,192.5,15.4
				c-2.8,0.7-5.6,1.4-8.4,2.1C490,191,446,215.6,411.6,247.1c-10.1,1-20.2,2.9-30.2,5.6c-25.1,6.7-48.1,18.1-68.3,33.9
				c-19.6,15.3-35.9,34-48.4,55.6c-12.5,21.7-20.6,45.1-24,69.7c-3.5,25.4-1.9,51,4.8,76.1c6.7,25.1,18.1,48.1,33.9,68.3
				c15.3,19.6,34,35.9,55.6,48.4c21.7,12.5,45.1,20.6,69.7,24c25.4,3.5,51,1.9,76.1-4.8c10-2.7,19.7-6.1,29-10.3
				c5.4-2.4,10.8-5.1,15.9-8c15.8-0.2,31.9-2.3,47.9-6.6c61.4-16.5,107.8-60.8,129.3-115.8c14.4-36.8,17.6-78.4,6.6-119.5
				c9.7,36.3,12.1,72.8,8,108c-5.8,49.3-24.2,95.8-52.8,135.4C627.2,659.1,572.3,698.9,505.7,716.8z"/>
			<path class="st2" d="M631.5,516.7c-9.2,2.5-18.4,4.3-27.6,5.6c-15.5,2.2-30.9,2.7-46.1,1.5c-22.5-1.7-43.4-7-62.3-15.6
				c-10.7-4.9-20.4-10.8-28.8-17.5c2.9,2.1,5.9,4.1,9.1,5.9c22.2,12.8,48.1,16.2,72.9,9.6c24.8-6.6,45.5-22.5,58.3-44.8
				c12.8-22.2,16.2-48.1,9.6-72.9c-6.7-25.1-18.1-48.1-33.9-68.3c-12.5-16-27.2-29.8-44-41.1c-3.8-2.5-7.6-5-11.6-7.3
				c-21.7-12.5-45.1-20.6-69.7-24c-9.4-1.3-18.7-1.9-28.1-1.8c-5.9,0.1-11.9,0.4-17.8,1C446,215.6,490,191,540.6,177.4
				c2.8-0.7,5.6-1.5,8.4-2.1c44.5,20,83.8,51.1,113.4,90.9c21.2,28.4,37.4,61.2,47.1,97.5c11,41.1,7.8,82.7-6.6,119.5
				c-1.3,0.9-2.7,1.9-4,2.8C678.8,499.8,656.2,510.1,631.5,516.7z"/>
			<linearGradient id="SVGID_3_" gradientUnits="userSpaceOnUse" x1="467.4962" y1="238.5776" x2="520.0211" y2="471.0491">
				<stop  offset="0" style="stop-color:#445EA7"/>
				<stop  offset="0.222" style="stop-color:#4F7CBC"/>
				<stop  offset="0.9984" style="stop-color:#5FAEDF"/>
			</linearGradient>
			<path class="st4" d="M573.6,599.1c-16,4.3-32.1,6.4-47.9,6.6c-42.8,0.4-83.9-13.6-117.1-38.5c0,0,0,0-0.1,0
				c-31.4-24.5-55.1-56.5-67.4-94.4c-0.2-0.6-0.4-1.2-0.6-1.8c-0.2-0.6-0.4-1.3-0.6-1.9c-0.3-1-0.6-2-0.9-3
				c-0.1-0.3-0.2-0.6-0.3-0.9c-0.2-0.6-0.3-1.2-0.5-1.9c-0.2-0.6-0.3-1.2-0.5-1.9c-0.1-0.3-0.2-0.6-0.2-0.9c-0.3-1-0.5-2-0.7-3
				c-0.2-0.6-0.3-1.3-0.4-1.9c-0.1-0.6-0.3-1.2-0.4-1.9c-8.3-39-3.8-78.6,11.2-115.5c0,0,0,0,0-0.1c13.5-33.4,35.6-64.5,64.4-90.9
				c5.9-0.6,11.8-1,17.8-1c9.4-0.1,18.8,0.5,28.1,1.8c24.6,3.4,48.1,11.5,69.7,24c4,2.3,7.8,4.7,11.6,7.3
				c-14.5,5.8-28.1,13.1-40.7,21.7c-18.6,12.7-34.1,27.8-46.1,44.7c-6.9,9.7-12.3,19.6-16.2,29.7c0,0,0,0,0,0.1
				c-7.9,18.2-10,38.2-5.9,57.8c0.1,0.4,0.2,0.9,0.3,1.3c0.1,0.4,0.2,0.8,0.3,1.3c0.1,0.3,0.2,0.7,0.2,1c0,0.2,0.1,0.4,0.1,0.6
				c0.1,0.4,0.2,0.8,0.3,1.2c0.1,0.4,0.2,0.8,0.3,1.2c0,0.2,0.1,0.4,0.2,0.5c0.1,0.3,0.2,0.7,0.3,1c0.1,0.4,0.3,0.8,0.4,1.2
				c0.2,0.5,0.3,1,0.5,1.5c0.1,0.3,0.2,0.6,0.3,0.9c0.1,0.4,0.3,0.7,0.4,1.1c6.4,18.1,17.9,33.6,33.3,44.9
				c8.5,6.7,18.1,12.6,28.8,17.5c18.8,8.7,39.8,13.9,62.3,15.6c15.2,1.2,30.6,0.6,46.1-1.5c9.2-1.3,18.4-3.2,27.6-5.6
				c24.6-6.6,47.3-16.9,67.4-30.6c1.3-0.9,2.7-1.9,4-2.8C681.5,538.2,635,582.6,573.6,599.1z"/>
			<linearGradient id="SVGID_4_" gradientUnits="userSpaceOnUse" x1="593.6085" y1="357.4106" x2="546.9197" y2="635.5982">
				<stop  offset="0" style="stop-color:#364D7F"/>
				<stop  offset="0.9988" style="stop-color:#364D7F;stop-opacity:0"/>
			</linearGradient>
			<path class="st5" d="M505.7,716.8c66.7-17.9,121.6-57.7,159-109.6c28.6-39.6,47-86.2,52.8-135.4c4.1-35.2,1.8-71.7-8-108
				c11,41.1,7.8,82.7-6.6,119.5c-21.5,55-67.9,99.4-129.3,115.8c-16,4.3-32.1,6.4-47.9,6.6c-5.2,2.9-10.5,5.6-15.9,8
				c-9.3,4.2-19,7.6-29,10.3c-25.1,6.7-50.7,8.3-76.1,4.8"/>
			<linearGradient id="SVGID_5_" gradientUnits="userSpaceOnUse" x1="585.4734" y1="227.2583" x2="811.6841" y2="227.2583">
				<stop  offset="0" style="stop-color:#445EA7"/>
				<stop  offset="0.2482" style="stop-color:#4F7CBC"/>
				<stop  offset="0.9996" style="stop-color:#89DDEF"/>
			</linearGradient>
			<path class="st6" d="M805,231.9c3.2,2.7,2.8,7.8-0.9,9.9L756,270l-28.5,16.6c-3.1,1.8-6.9,1.9-10,0.1
				c-7.2-4.1-14.8-7.8-22.7-10.9c-0.9-0.3-1.7-0.7-2.6-1c-1.3-0.5-2.6-1-4-1.5c-0.6-0.2-1.2-0.4-1.8-0.6c-1.1-0.4-2.2-0.7-3.2-1.1
				c-0.3-0.1-0.5-0.2-0.8-0.3c-6.5-2.1-13.2-3.9-20.1-5.2c-29.6-39.7-68.8-70.8-113.2-90.8c0.4-0.1,0.8-0.2,1.2-0.3
				c0.9-0.2,1.8-0.4,2.8-0.6c0.2-0.1,0.4-0.1,0.7-0.2c15.7-3.5,31.3-5.8,46.7-7c0.4,0,0.9-0.1,1.3-0.1c1.6-0.1,3.2-0.2,4.8-0.3
				c4.8-0.2,9.7-0.3,14.6-0.3c56.3,0,108.6,15.5,151.7,42.1c0.1,0,0.1,0.1,0.2,0.1C784.3,215.7,795.1,223.4,805,231.9z"/>
		</g>
	</g>
</g>
</svg>
