<?xml version="1.0" encoding="utf-8"?>
<!-- Generator: Adobe Illustrator 23.0.6, SVG Export Plug-In . SVG Version: 6.00 Build 0)  -->
<svg version="1.1" id="Layer_1" xmlns="http://www.w3.org/2000/svg" xmlns:xlink="http://www.w3.org/1999/xlink" x="0px" y="0px"
	 viewBox="0 0 22.8 22.8" style="enable-background:new 0 0 22.8 22.8;" xml:space="preserve">
<style type="text/css">
	.st0{fill:#E96832;}
	.st1{fill:#1E7DBC;}
</style>
<circle class="st0" cx="20.9" cy="1.9" r="1.9"/>
<path class="st0" d="M19.5,19.6c-0.7,0.7-0.7,2,0,2.7c0.7,0.7,2,0.7,2.7,0c0.7-0.7,0.7-2,0-2.7C21.5,18.8,20.3,18.8,19.5,19.6z"/>
<path class="st1" d="M19.5,10.1c-0.7,0.7-0.7,2,0,2.7c0.7,0.7,2,0.7,2.7,0c0.7-0.7,0.7-2,0-2.7C21.5,9.3,20.3,9.3,19.5,10.1z"/>
<circle class="st1" cx="11.4" cy="1.9" r="1.9"/>
<path class="st1" d="M10.1,19.6c-0.7,0.7-0.7,2,0,2.7c0.7,0.7,2,0.7,2.7,0c0.7-0.7,0.7-2,0-2.7C12,18.8,10.8,18.8,10.1,19.6z"/>
<path class="st1" d="M10.1,10.1c-0.7,0.7-0.7,2,0,2.7c0.7,0.7,2,0.7,2.7,0c0.7-0.7,0.7-2,0-2.7C12,9.3,10.8,9.3,10.1,10.1z"/>
<circle class="st0" cx="1.9" cy="1.9" r="1.9"/>
<path class="st1" d="M0.6,10.1c-0.7,0.7-0.7,2,0,2.7c0.7,0.7,2,0.7,2.7,0c0.7-0.7,0.7-2,0-2.7C2.5,9.3,1.3,9.3,0.6,10.1z"/>
<path class="st0" d="M0.6,19.6c-0.7,0.7-0.7,2,0,2.7c0.7,0.7,2,0.7,2.7,0c0.7-0.7,0.7-2,0-2.7C2.5,18.8,1.3,18.8,0.6,19.6z"/>
<rect x="-2" y="9.5" transform="matrix(0.7077 -0.7065 0.7065 0.7077 -4.7356 11.3964)" class="st0" width="26.9" height="3.8"/>
<rect x="1.9" class="st0" width="19" height="3.8"/>
<rect x="19" y="1.9" class="st0" width="3.8" height="19"/>
</svg>
